<svg xmlns="http://www.w3.org/2000/svg" viewBox="0 0 219.2 237.8"><path fill="#000D7F" d="M116.1 122.1V157c3-1 5.9-2.1 8.9-3.5 11-5 20.4-11.6 28.4-20l-10.5-11.3c-.9 0-1.8-.1-2.7-.1h-24.1z"/><path fill="#FFF" d="M77.7 122.9c-1.2-.6-2.3-1.2-3.5-1.9-6.1-3.7-10.9-8.8-14.4-15.3-3.4-6.5-5.1-13.7-5.1-21.7s1.7-15.2 5.2-21.7S68.2 50.7 74.3 47c6.1-3.7 12.8-5.6 20.2-5.6 6.4 0 12.9 1.8 19.5 5.3 6.6 3.6 12.2 8.3 17 14.4l22.2-26.8c-7.4-7.8-16.4-14-27-18.5C115.5 11.3 104.8 9 93.9 9c-14.8 0-28.2 3.3-40.1 9.8-11.9 6.6-21.3 15.6-28.2 27-6.8 11.5-10.3 24.3-10.3 38.6 0 14.4 3.4 27.4 10.1 39C32 135 41.3 144.2 53 150.9c7.7 4.4 15.9 7.3 24.7 8.8v-36.8z"/><path fill="#FFF" d="M181.8 100.1c11.8 6.1 21 14.8 27.6 25.9 6.6 11.1 9.9 23.9 9.9 38.2 0 14.4-3.3 27.2-10 38.3-6.6 11.2-16 19.8-28.1 26-12.1 6.2-26 9.2-41.6 9.2H77.7V90.9H141c15.4 0 29 3 40.8 9.2zm-20 101.4c5.7-3.5 10.2-8.5 13.4-14.9 3.2-6.4 4.8-13.8 4.8-22 0-8.4-1.7-15.8-5.1-22.2-3.4-6.4-8.1-11.4-14.1-15-6-3.6-12.9-5.3-20.5-5.3h-24.1v84.7h26c7.3-.1 13.9-1.8 19.6-5.3z" opacity=".5"/><path fill="none" d="M154 94.2v42.1c6-2.9 10.2-6.6 14.6-11.2l22.2 24.1c-8 8.4-17.2 15.1-28.1 20-3 1.4-5.7 2.5-8.7 3.5v27.5h53v-106h-53z"/><path fill="#FFF" d="M155.2 131.7l-23.6-25.9c-4.8 4.9-10.2 8.9-15.6 12.1V157c2.2-1.1 5.9-2.3 9.1-3.8 11.8-5.3 21.5-12.5 30.1-21.5z"/></svg>