<svg xmlns="http://www.w3.org/2000/svg" viewBox="0 0 675 733.2"><path fill="#6C0132" d="M673 443.2H2c-1.1 0-2 .9-2 2v23c0 1.1.9 2 2 2h7v261c0 1.1.9 2 2 2h23c1.1 0 2-.9 2-2v-261h603v261c0 1.1.9 2 2 2h23c1.1 0 2-.9 2-2v-261h7c1.1 0 2-.9 2-2v-23c0-1.1-.9-2-2-2z"/><path fill="#31102E" d="M627.8 398.2l-15.8-1.9v-16.1h-45v55.1c0 4.3 3.8 7.9 8.3 7.9h28.3c4.6 0 8.3-3.5 8.3-7.9V425l16.4-6c1-.4 1.6-1.3 1.6-2.3v-16c.1-1.3-.8-2.3-2.1-2.5zM625 415l-13 4.8v-18.4l13 1.6v12z"/><circle class="svg-animate" fill="#F9F9F9" stroke="#31102E" stroke-width="7" stroke-miterlimit="10" cx="598.3" cy="66.5" r="63"/><path fill="#31102E" d="M543 64.2h18v2h-18zm90 0h18v2h-18zm-36 38h2v18h-2zm0-90h2v18h-2zm27.3 17.6l-4.3-2.6-21.7 35.6h-.1c-1.9 0-3.4 1.4-3.6 3.2L569 68.5l.4 4 27.4-2.7c.5.2 1 .4 1.5.4 2 0 3.7-1.7 3.7-3.7l22.3-36.7z"/><path fill="#5B0130" d="M173 378.2h-16c-1.1 0-2 .9-2 2l-11 54c0 1.1.9 2 2 2h16c1.1 0 2-.9 2-2l11-54c0-1.1-.9-2-2-2z"/><path fill="#31102E" d="M304 227.2H74c-1.1 0-2 .9-2 1.9v149.1c0 1.1.9 1.9 2 1.9h230c1.1 0 2-.9 2-1.9V229.1c0-1-.9-1.9-2-1.9z"/><path fill="#CA3A33" d="M295.2 236.2H82.8c-1 0-1.8.8-1.8 1.7v131.6c0 .9.8 1.7 1.8 1.7h212.3c1 0 1.8-.8 1.8-1.7V237.9c.1-.9-.7-1.7-1.7-1.7z"/><path fill="#31102E" d="M214 432.2H101c-1.1 0-2 .9-2 2v7c0 1.1.9 2 2 2h113c1.1 0 2-.9 2-2v-7c0-1.1-.9-2-2-2z"/><path fill="#5B0130" d="M331 425.2h-5c-1.1 0-2 .9-2 2 0-1.1-.9-2-2-2h-5c-1.1 0-2 .9-2 2 0-1.1-.9-2-2-2h-5c-1.1 0-2 .9-2 2 0-1.1-.9-2-2-2h-5c-1.1 0-2 .9-2 2 0-1.1-.9-2-2-2h-5c-1.1 0-2 .9-2 2 0-1.1-.9-2-2-2h-5c-1.1 0-2 .9-2 2 0-1.1-.9-2-2-2h-5c-1.1 0-2 .9-2 2 0-1.1-.9-2-2-2h-5c-1.1 0-2 .9-2 2 0-1.1-.9-2-2-2h-5c-1.1 0-2 .9-2 2v7c0 1.1.9 2 2 2h5c1.1 0 2-.9 2-2 0 1.1.9 2 2 2h5c1.1 0 2-.9 2-2 0 1.1.9 2 2 2h5c1.1 0 2-.9 2-2 0 1.1.9 2 2 2h5c1.1 0 2-.9 2-2 0 1.1.9 2 2 2h5c1.1 0 2-.9 2-2 0 1.1.9 2 2 2h5c1.1 0 2-.9 2-2 0 1.1.9 2 2 2h5c1.1 0 2-.9 2-2 0 1.1.9 2 2 2h5c1.1 0 2-.9 2-2 0 1.1.9 2 2 2h5c1.1 0 2-.9 2-2v-7c0-1.1-.9-2-2-2z"/><path fill="#31102E" d="M367 432.2H245c-1.1 0-2 .9-2 2v7c0 1.1.9 2 2 2h122c1.1 0 2-.9 2-2v-7c0-1.1-.9-2-2-2z"/><text transform="translate(91.667 308.2)" fill="#31102E" font-family="'RobotoMono-Regular'" font-size="21.678">Hello World</text><path class="illustration-cursor" fill="#31102E" d="M240.6 286.4h8.1v27.8h-8.1z"/><g><path fill="#CF4035" d="M382.5 308.2c-7.4 0-13.5-6.1-13.5-13.5v-36c0-7.4 6.1-13.5 13.5-13.5s13.5 6.1 13.5 13.5v36c0 7.4-6.1 13.5-13.5 13.5z"/><path fill="#ED826B" d="M405 164.2h-63v62.2c0 3.4.5 6.7 1.3 9.8H369c0 5-4 9-9 9h-12.8c6.4 10.8 18.2 18 31.6 18h.9c20.2 0 37.3-16.6 37.3-36.8v-44.2l-12-18z"/><path fill="#6C0132" d="M270 696.7v30.5c0 2.2-1.8 4-4 4h-83.8c-1.2 0-2.2-1.1-2-2.3.8-4.9 4-15.7 17.8-15.7 17 0 42.8-5.1 44.9-24.5.1-1.3 1.4-2.1 2.6-1.7l23.1 7.7c.8.3 1.4 1.1 1.4 2zm108 0v30.5c0 2.2-1.8 4-4 4h-83.8c-1.2 0-2.2-1.1-2-2.3.8-4.9 4-15.7 17.8-15.7 17 0 42.8-5.1 44.9-24.5.1-1.3 1.4-2.1 2.6-1.7l23.1 7.7c.8.3 1.4 1.1 1.4 2z"/><path d="M396.3 522.9c-.1 2.4-.9 4.7-2.3 6.6 1.1 4.6 1.7 8.9 1.6 11.4l.7-18z"/><path fill="#31102E" d="M381.7 508.8l-141.4 12.8c-7.9-.3-14.6 4.9-15.5 11.8-.7 1.8-1 3.7-.8 5.8l13.6 152.6c.6 7.4 16 13 23.4 12.4 7.4-.6 9.6-10.6 9-18l-9-135 119.7-15.4c5.6.2 10.5-2.4 13.3-6.3-2.3-9.5-6.7-20.5-12.3-20.7z"/><path d="M512.3 522.9c-.1 2.4-.9 4.7-2.3 6.6 1.1 4.6 1.7 8.9 1.6 11.4l.7-18z"/><path fill="#31102E" d="M497.7 508.8l-141.4 12.8c-7.9-.3-14.6 4.9-15.5 11.8-.7 1.8-1 3.7-.8 5.8l13.6 152.6c.6 7.4 7.1 13 14.5 12.4 7.4-.6 19.4-10.6 18.8-18l-9-135 118.7-15.4c5.6.2 10.5-2.4 13.3-6.3-2.2-9.5-6.6-20.5-12.2-20.7z"/><path fill="#CF4035" d="M290.1 423.3l6.5 7.7c3.2 3.8 8.9 4.3 12.7 1.1l4.3-3.6c3.8-3.2 4.3-8.9 1.1-12.7l-6.5-7.7c-3.2-3.8-8.9-4.3-12.7-1.1l-4.3 3.6c-3.8 3.2-4.3 8.9-1.1 12.7z"/><path fill="#ED826B" d="M286.9 430.9l9.4 3.6c4.6 1.8 9.9-.5 11.6-5.1l32.6-83.9c1.8-4.6-.5-9.9-5.1-11.6l-9.4-3.6c-4.6-1.8-9.9.5-11.6 5.1l-32.6 83.9c-1.8 4.6.5 9.9 5.1 11.6z"/><path fill="#6C0132" d="M448 282.2h-95c-6.2 0-11.7 2.3-15.4 6.8-6.2.7-11.6 4.2-13.4 9.8l-28 84.2 34 11.4 1.8-7.1v127.9l135-18v-196c0-11-8-19-19-19z"/><path d="M355.5 200.2c-2.5 0-4.5-2-4.5-4.5s2-4.5 4.5-4.5 4.5 2 4.5 4.5-2 4.5-4.5 4.5z"/><circle fill="#42082F" cx="351" cy="155.2" r="18"/><path fill="#42082F" d="M409.5 173.2h-54c-7.4 0-13.5-6.1-13.5-13.5s6.1-13.5 13.5-13.5H387c12.4 0 27 10.6 27 18 0 0 2.9 9-4.5 9z"/><path fill="#42082F" d="M414 236.2s-9 2-9-9v-27h-9s-9-5.8-9 0v9h-9v-45h36s9 5.3 9 18c0 5.5 2.5 41.5-9 54z"/><path fill="#CF4035" d="M396 218.2c-5 0-9-4-9-9v-9c0-4.9 4-9 9-9s9 4.1 9 9v9c0 5-4 9-9 9z"/></g><g><g fill="#1F00AA"><path d="M475 695.2h-79v-178c0-1.1-.9-2-2-2h-23c-1.1 0-2 .9-2 2v178h-79c-1.1 0-2 .9-2 2v14c0 1.1.9 2 2 2h185c1.1 0 2-.9 2-2v-14c0-1.1-.9-2-2-2z"/><path d="M272 533.2h104c11 0 20 9 20 20v14c0 11-9 20-20 20H272c-11 0-20-9-20-20v-14c0-11 9-20 20-20z"/><path d="M272 533.2h104c11 0 20 9 20 20v14c0 11-9 20-20 20H272c-11 0-20-9-20-20v-14c0-11 9-20 20-20z"/><path d="M495 587.2H380c-11 0-20-9-20-20v-275c0-11 9-20 20-20h115c11 0 20 9 20 20v275c0 11-9 20-20 20z"/><path d="M495 587.2H380c-11 0-20-9-20-20v-275c0-11 9-20 20-20h115c11 0 20 9 20 20v275c0 11-9 20-20 20zm-182 144h-14c-1.1 0-2-.9-2-2v-14c0-1.1.9-2 2-2h14c1.1 0 2 .9 2 2v14c0 1.1-.9 2-2 2zm153 0h-14c-1.1 0-2-.9-2-2v-14c0-1.1.9-2 2-2h14c1.1 0 2 .9 2 2v14c0 1.1-.9 2-2 2z"/></g><path fill="#CA3A33" d="M475 695.2h-79v-178c0-1.1-.9-2-2-2h-23c-1.1 0-2 .9-2 2v178h-79c-1.1 0-2 .9-2 2v14c0 1.1.9 2 2 2h185c1.1 0 2-.9 2-2v-14c0-1.1-.9-2-2-2z"/><path fill="#31102E" d="M272 533.2h104c11 0 20 9 20 20v14c0 11-9 20-20 20H272c-11 0-20-9-20-20v-14c0-11 9-20 20-20z"/><path fill="#31102E" d="M495 587.2H380c-11 0-20-9-20-20v-275c0-11 9-20 20-20h115c11 0 20 9 20 20v275c0 11-9 20-20 20zm-182 144h-14c-1.1 0-2-.9-2-2v-14c0-1.1.9-2 2-2h14c1.1 0 2 .9 2 2v14c0 1.1-.9 2-2 2zm153 0h-14c-1.1 0-2-.9-2-2v-14c0-1.1.9-2 2-2h14c1.1 0 2 .9 2 2v14c0 1.1-.9 2-2 2z"/></g></svg>